#!OML:ASF E:\Style4\Style4.ASF
:FULLY-SPECIFIED
:DEGREES
2440
root -0.344415 18.0873 -1.30071 -0.194741 0.783836 1.51986
lowerback 1.99486 6.61336 0.206845
upperback 2.04222 8.88952 -4.86816
thorax 1.81027 4.51841 -5.11915
lowerneck 3.69615 -4.32801 -6.90222
upperneck 2.98667 -6.23336 11.9307
head 0.862048 -3.16172 4.70003
rclavicle 4.13472e-014 4.77083e-015
rhumerus 39.1026 -9.4566 -10.4972
rradius 117.453
rwrist -42.6388
rhand -24.4278 35.9384
rfingers 7.12502
rthumb 2.06417 5.96866
lclavicle 4.13472e-014 4.77083e-015
lhumerus -54.0083 -36.5185 94.1449
lradius 104.702
lwrist 20.1998
lhand -11.4116 26.8304
lfingers 7.12502
lthumb 14.6239 56.2948
rfemur -3.24186 3.89109 18.0306
rtibia 19.5912
rfoot -15.0746 -16.3108
rtoes -8.59695
lfemur 1.09644 -3.68786 -21.2128
ltibia 14.5812
lfoot -16.3692 14.7946
ltoes -13.3304
2441
root -0.345065 18.086 -1.30184 -0.207002 0.749693 1.48665
lowerback 2.01059 6.61389 0.23809
upperback 2.04399 8.8899 -4.84839
thorax 1.80491 4.51882 -5.11757
lowerneck 3.70879 -4.32667 -6.91855
upperneck 3.01186 -6.23495 11.9414
head 0.868269 -3.16254 4.70606
rclavicle -2.23633e-014 1.43125e-014
rhumerus 39.1205 -9.4486 -10.509
rradius 117.412
rwrist -42.6322
rhand -24.3133 35.924
rfingers 7.12502
rthumb 2.17475 5.95535
lclavicle -2.23633e-014 1.43125e-014
lhumerus -53.9619 -36.4407 94.0675
lradius 104.653
lwrist 20.1585
lhand -11.3763 26.7097
lfingers 7.12502
lthumb 14.658 56.1716
rfemur -3.25409 3.92893 18.0728
rtibia 19.6058
rfoot -15.0893 -16.3262
rtoes -8.66971
lfemur 1.06372 -3.63559 -21.1683
ltibia 14.6486
lfoot -16.3856 14.7812
ltoes -13.2624
2442
root -0.344785 18.0852 -1.30168 -0.22027 0.724557 1.42057
lowerback 2.01953 6.60799 0.323045
upperback 2.05213 8.88307 -4.82687
thorax 1.81719 4.51693 -5.14194
lowerneck 3.72048 -4.32302 -6.89138
upperneck 3.00234 -6.22853 11.9335
head 0.861872 -3.1596 4.69967
rclavicle 1.50579e-013 -5.56597e-014
rhumerus 39.1649 -9.47059 -10.5393
rradius 117.381
rwrist -42.7048
rhand -24.1271 35.8878
rfingers 7.12502
rthumb 2.35461 5.92103
lclavicle 1.50579e-013 -5.56597e-014
lhumerus -53.8468 -36.3507 93.9305
lradius 104.532
lwrist 19.9768
lhand -11.4923 26.0175
lfingers 7.12502
lthumb 14.5462 55.4875
rfemur -3.25501 3.95513 18.1443
rtibia 19.6285
rfoot -15.1395 -16.3131
rtoes -8.73754
lfemur 1.05846 -3.62737 -21.102
ltibia 14.702
lfoot -16.3682 14.8116
ltoes -13.4184
2443
root -0.344982 18.0841 -1.30167 -0.232688 0.699929 1.38716
lowerback 2.03935 6.58904 0.343466
upperback 2.05901 8.85716 -4.79961
thorax 1.8094 4.50381 -5.12744
lowerneck 3.70171 -4.29775 -6.86739
upperneck 3.00167 -6.19168 11.8885
head 0.859176 -3.14055 4.68202
rclavicle -5.74488e-014 1.90833e-014
rhumerus 39.2276 -9.46026 -10.5543
rradius 117.339
rwrist -42.6992
rhand -23.9564 35.9497
rfingers 7.12502
rthumb 2.51946 5.98487
lclavicle -5.74488e-014 1.90833e-014
lhumerus -53.8228 -36.2085 93.8827
lradius 104.518
lwrist 19.8506
lhand -11.7116 24.9767
lfingers 7.12502
lthumb 14.3349 54.4618
rfemur -3.26662 3.97432 18.1844
rtibia 19.6654
rfoot -15.1273 -16.2937
rtoes -8.69238
lfemur 1.03828 -3.59819 -21.0623
ltibia 14.7756
lfoot -16.4118 14.8229
ltoes -13.3321
2444
root -0.345706 18.0835 -1.30231 -0.225209 0.642934 1.38692
lowerback 2.04442 6.57829 0.323551
upperback 2.06642 8.84215 -4.78203
thorax 1.80687 4.49556 -5.09899
lowerneck 3.62253 -4.27636 -6.90227
upperneck 3.07229 -6.16666 11.8874
head 0.891402 -3.12467 4.68487
rclavicle -1.82882e-013 4.77083e-014
rhumerus 39.2655 -9.44187 -10.4959
rradius 117.359
rwrist -42.5519
rhand -24.116 35.7435
rfingers 7.12502
rthumb 2.36534 5.77684
lclavicle -1.82882e-013 4.77083e-014
lhumerus -53.837 -36.1015 93.8881
lradius 104.54
lwrist 19.8163
lhand -11.8566 24.4132
lfingers 7.12502
lthumb 14.1952 53.9082
rfemur -3.3256 4.02094 18.1874
rtibia 19.7278
rfoot -15.0758 -16.3037
rtoes -9.06121
lfemur 0.998184 -3.55692 -21.058
ltibia 14.8321
lfoot -16.4365 14.8492
ltoes -13.5878
2445
root -0.345793 18.0819 -1.30236 -0.197314 0.581466 1.38734
lowerback 2.01792 6.57091 0.293952
upperback 2.05911 8.83163 -4.76267
thorax 1.80529 4.48909 -5.06041
lowerneck 3.60408 -4.26921 -6.86565
upperneck 3.09345 -6.15561 11.8419
head 0.897147 -3.11794 4.66436
rclavicle -2.67365e-014 2.54444e-014
rhumerus 39.2607 -9.44728 -10.4453
rradius 117.414
rwrist -42.425
rhand -24.3472 35.4986
rfingers 7.12502
rthumb 2.14207 5.52961
lclavicle -2.67365e-014 2.54444e-014
lhumerus -53.8743 -36.0183 93.9242
lradius 104.539
lwrist 19.7733
lhand -12.0008 24.4752
lfingers 7.12502
lthumb 14.0562 53.9799
rfemur -3.42359 4.0117 18.1784
rtibia 19.8319
rfoot -15.0424 -16.2736
rtoes -9.25403
lfemur 0.969244 -3.45789 -21.0518
ltibia 14.8297
lfoot -16.4195 14.8571
ltoes -14.0206
2446
root -0.344589 18.0808 -1.30152 -0.223186 0.546878 1.48583
lowerback 2.02293 6.54274 0.167147
upperback 2.08559 8.79243 -4.74424
thorax 1.80394 4.46681 -4.97245
lowerneck 3.6013 -4.26523 -6.85165
upperneck 3.09408 -6.14805 11.7736
head 0.894737 -3.11419 4.64126
rclavicle -3.08116e-015 -1.27222e-014
rhumerus 39.3203 -9.47843 -10.4646
rradius 117.426
rwrist -42.369
rhand -24.4818 35.597
rfingers 7.12502
rthumb 2.012 5.6267
lclavicle -3.08116e-015 -1.27222e-014
lhumerus -53.905 -35.8853 93.9777
lradius 104.531
lwrist 19.6905
lhand -11.7624 25.0765
lfingers 7.12502
lthumb 14.2859 54.565
rfemur -3.4572 3.96499 18.0559
rtibia 19.9458
rfoot -15.1257 -16.1836
rtoes -9.05068
lfemur 1.01885 -3.39462 -21.1669
ltibia 14.79
lfoot -16.393 14.8684
ltoes -13.9978
2447
root -0.343426 18.0799 -1.2996 -0.239716 0.479477 1.61759
lowerback 2.00502 6.5304 0.0219554
upperback 2.12011 8.77558 -4.74395
thorax 1.82608 4.45601 -4.88936
lowerneck 3.62357 -4.26403 -6.82917
upperneck 3.02472 -6.13942 11.7071
head 0.867492 -3.11193 4.61873
rclavicle 5.01931e-014 -1.27222e-014
rhumerus 39.3325 -9.52901 -10.4837
rradius 117.43
rwrist -42.4514
rhand -24.3137 35.9144
rfingers 7.12502
rthumb 2.17442 5.94578
lclavicle 5.01931e-014 -1.27222e-014
lhumerus -53.9285 -35.8194 94.0369
lradius 104.52
lwrist 19.71
lhand -11.3156 26.1688
lfingers 7.12502
lthumb 14.7164 55.6265
rfemur -3.47948 3.96879 17.8994
rtibia 20.036
rfoot -15.2389 -16.0705
rtoes -8.96475
lfemur 1.07273 -3.36935 -21.3254
ltibia 14.7608
lfoot -16.4084 14.8796
ltoes -13.7683
2448
root -0.341671 18.0797 -1.29974 -0.24118 0.413366 1.65123
lowerback 2.01013 6.48724 -0.0288694
upperback 2.11808 8.71596 -4.71192
thorax 1.80291 4.42414 -4.83077
lowerneck 3.6596 -4.21159 -6.86736
upperneck 2.99443 -6.06921 11.7078
head 0.847146 -3.07903 4.62749
rclavicle -4.59193e-014 -1.59028e-014
rhumerus 39.4353 -9.5102 -10.4715
rradius 117.386
rwrist -42.4198
rhand -24.2767 35.8567
rfingers 7.12502
rthumb 2.21013 5.88836
lclavicle -4.59193e-014 -1.59028e-014
lhumerus -54.0123 -35.645 94.0937
lradius 104.486
lwrist 19.744
lhand -11.1904 26.4648
lfingers 7.12502
lthumb 14.8371 55.9136
rfemur -3.52216 3.9791 17.8521
rtibia 20.0986
rfoot -15.221 -16.0202
rtoes -8.91525
lfemur 1.10732 -3.37456 -21.3768
ltibia 14.7213
lfoot -16.4252 14.9401
ltoes -13.6264
2449
root -0.340874 18.0799 -1.29953 -0.225584 0.357692 1.58541
lowerback 1.98912 6.44706 0.0322234
upperback 2.11103 8.66225 -4.65792
thorax 1.80294 4.39721 -4.80693
lowerneck 3.66653 -4.17119 -6.91506
upperneck 3.01666 -6.019 11.7265
head 0.849581 -3.05425 4.64169
rclavicle -7.11649e-014 -1.59028e-015
rhumerus 39.4969 -9.44989 -10.4828
rradius 117.344
rwrist -42.2064
rhand -24.6187 35.5667
rfingers 7.12502
rthumb 1.87981 5.59527
lclavicle -7.11649e-014 -1.59028e-015
lhumerus -54.0946 -35.4713 94.1481
lradius 104.438
lwrist 19.7181
lhand -11.2486 26.2976
lfingers 7.12502
lthumb 14.781 55.7506
rfemur -3.57236 3.99492 17.9157
rtibia 20.1391
rfoot -15.2129 -15.982
rtoes -8.94668
lfemur 1.10477 -3.35957 -21.3125
ltibia 14.7072
lfoot -16.3994 15.0382
ltoes -13.8109
2450
root -0.340275 18.0807 -1.29856 -0.217047 0.298754 1.58597
lowerback 1.93878 6.41595 0.0254705
upperback 2.14061 8.62243 -4.61853
thorax 1.85074 4.37702 -4.75504
lowerneck 3.67109 -4.16855 -6.97303
upperneck 2.98486 -6.01556 11.737
head 0.841247 -3.05394 4.65492
rclavicle 4.76089e-014 1.59028e-015
rhumerus 39.5582 -9.49135 -10.5192
rradius 117.267
rwrist -42.0277
rhand -24.6364 35.5909
rfingers 7.12502
rthumb 1.86278 5.61929
lclavicle 4.76089e-014 1.59028e-015
lhumerus -54.1672 -35.3894 94.2883
lradius 104.459
lwrist 19.888
lhand -11.6339 26.4329
lfingers 7.12502
lthumb 14.4098 55.9127
rfemur -3.60324 4.00174 17.9083
rtibia 20.1668
rfoot -15.2144 -15.9361
rtoes -8.98351
lfemur 1.11534 -3.3224 -21.3161
ltibia 14.7004
lfoot -16.4509 15.0549
ltoes -13.7349
2451
root -0.338353 18.0804 -1.29727 -0.206395 0.255914 1.61994
lowerback 1.89346 6.38657 0.0244118
upperback 2.16802 8.58575 -4.62247
thorax 1.90165 4.35937 -4.75151
lowerneck 3.64117 -4.17767 -6.9783
upperneck 2.99942 -6.02835 11.7474
head 0.852097 -3.05922 4.65785
rclavicle -5.05907e-014 -4.05521e-014
rhumerus 39.4988 -9.58702 -10.5317
rradius 117.225
rwrist -41.9754
rhand -24.5929 35.7752
rfingers 7.12502
rthumb 1.90471 5.80394
lclavicle -5.05907e-014 -4.05521e-014
lhumerus -54.1991 -35.3757 94.3959
lradius 104.45
lwrist 20.0519
lhand -11.9415 26.4533
lfingers 7.12502
lthumb 14.1133 55.954
rfemur -3.63682 3.95059 17.8524
rtibia 20.2059
rfoot -15.2379 -15.829
rtoes -9.07742
lfemur 1.13614 -3.24147 -21.3579
ltibia 14.671
lfoot -16.4673 15.0363
ltoes -13.5935
2452
root -0.336386 18.0803 -1.2949 -0.197553 0.167017 1.65271
lowerback 1.85941 6.36855 0.0173224
upperback 2.16703 8.56275 -4.63693
thorax 1.91885 4.348 -4.75876
lowerneck 3.64661 -4.18726 -6.83243
upperneck 3.00961 -6.0356 11.6795
head 0.848645 -3.06145 4.61306
rclavicle 3.77691e-015 4.85035e-014
rhumerus 39.4101 -9.61114 -10.521
rradius 117.238
rwrist -41.9107
rhand -24.6972 35.8782
rfingers 7.12502
rthumb 1.80405 5.90613
lclavicle 3.77691e-015 4.85035e-014
lhumerus -54.1683 -35.2808 94.3141
lradius 104.373
lwrist 19.8416
lhand -11.6501 26.2332
lfingers 7.12502
lthumb 14.3941 55.7141
rfemur -3.68911 3.93664 17.7966
rtibia 20.2652
rfoot -15.2071 -15.7495
rtoes -9.3313
lfemur 1.18271 -3.22974 -21.412
ltibia 14.5971
lfoot -16.4618 15.1499
ltoes -13.9108
